<svg width="93" height="105" fill="none" xmlns="http://www.w3.org/2000/svg"><path d="M8.426 94.504 0 0h92.588L84.15 94.489 46.237 105 8.427 94.504z" fill="#E44F26"/><path d="m46.294 96.967 30.637-8.493L84.14 7.729H46.294v89.238z" fill="#F1662A"/><path d="M46.294 42.776H30.956L29.9 30.907h16.395v-11.59H17.23l.278 3.112 2.846 31.939h25.939V42.776zm0 30.101-.053.015-12.907-3.483-.825-9.244H20.872l1.624 18.195 23.745 6.592.053-.015v-12.06z" fill="#EBEBEB"/><path d="M46.252 42.776v11.591h14.273l-1.343 15.034-12.93 3.488v12.06l23.764-6.589.173-1.957 2.722-30.514.285-3.113H46.253zM46 19.316v11.591h28.25L74 28.305l1-5.876V19" fill="#fff"/></svg>