<svg width="41" height="28" fill="none" xmlns="http://www.w3.org/2000/svg"><path d="M15.96 0H3.88C2.16 0 .92 1.24.92 2.88v22.24c0 1.6 1.24 2.88 2.96 2.88h12.08c1.76 0 2.96-1.28 2.96-2.88V11.8h-9v4.32h4.12v6.56c0 .52-.2.8-.76.8H6.56c-.56 0-.76-.28-.76-.8V5.32c0-.52.2-.8.76-.8h6.72c.56 0 .76.28.76.8v2.72h4.88V2.88c0-1.64-1.2-2.88-2.96-2.88zm21.916 0h-12.08c-1.72 0-2.96 1.24-2.96 2.88v4.76h4.88V5.32c0-.52.2-.8.76-.8h6.72c.56 0 .76.28.76.8v5.44c0 .48-.2.76-.76.76h-9.4c-1.72 0-2.96 1.28-2.96 2.88V28h18v-8.2h-4.88v3.68h-8.24v-6.64c0-.52.2-.76.76-.76h.4v-.04h9c1.76 0 2.96-1.24 2.96-2.84V2.88c0-1.64-1.2-2.88-2.96-2.88z" fill="#fff" fill-opacity=".6"/></svg>