<svg width="111" height="110" fill="none" xmlns="http://www.w3.org/2000/svg"><path d="M107.922 50.102 59.9 2.08a7.07 7.07 0 0 0-10.016 0l-9.974 9.973 12.649 12.649a8.41 8.41 0 0 1 10.653 10.724l12.177 12.177a8.418 8.418 0 1 1-5.047 4.753L58.968 40.984v29.921a8.41 8.41 0 1 1-6.929-.243V40.466a8.43 8.43 0 0 1-4.576-11.054L35.01 16.952 2.081 49.893a7.07 7.07 0 0 0 0 10.021l48.022 48.006a7.07 7.07 0 0 0 10.017 0l47.802-47.813a7.063 7.063 0 0 0 2.082-5.01 7.075 7.075 0 0 0-2.082-5.011" fill="#DD4C35"/></svg>