<svg width="113" height="110" fill="none" xmlns="http://www.w3.org/2000/svg"><path d="M19.979 0h72.863c11.047 0 19.979 8.932 19.979 19.979V90.02c0 11.047-8.932 19.979-19.98 19.979H19.98C8.932 110 0 101.068 0 90.021V19.98C0 8.932 8.932 0 19.979 0z" fill="#300"/><path d="M54.53 65.812H37.043L33.47 76.859a.823.823 0 0 1-.893.658h-8.838c-.517 0-.658-.282-.517-.846L38.36 33.094c.141-.47.282-.987.47-1.551.188-.987.282-2.022.282-3.056-.047-.235.141-.47.376-.517h12.175c.377 0 .565.141.611.376l17.159 48.419c.14.517 0 .752-.47.752h-9.825c-.33.047-.658-.188-.752-.517L54.53 65.812zm-14.76-9.543h11.94a66.736 66.736 0 0 0-1.082-3.384 142.69 142.69 0 0 1-1.269-4.043c-.47-1.457-.893-2.868-1.363-4.325-.47-1.457-.893-2.82-1.27-4.184-.376-1.316-.705-2.538-1.034-3.666h-.094A57.735 57.735 0 0 1 44 42.73c-.705 2.256-1.41 4.607-2.162 6.957a92.246 92.246 0 0 1-2.069 6.581zm40.145-20.072c-1.552.047-3.056-.565-4.184-1.646a6.107 6.107 0 0 1-1.599-4.325 5.53 5.53 0 0 1 1.693-4.183c1.128-1.081 2.632-1.646 4.183-1.646 1.834 0 3.244.565 4.278 1.646a5.935 5.935 0 0 1 1.552 4.184c.047 1.598-.517 3.149-1.646 4.324-1.08 1.128-2.68 1.74-4.277 1.645zM74.65 77V40.803c0-.47.188-.658.61-.658h9.308c.424 0 .612.235.612.658V77c0 .517-.189.752-.612.752h-9.213c-.47 0-.705-.282-.705-.752z" fill="#FF9A00"/></svg>