<svg width="42" height="43" fill="none" xmlns="http://www.w3.org/2000/svg"><path d="M29.488.668H12.512C5.612.668 0 6.292 0 13.206v17.01c0 6.913 5.613 12.537 12.512 12.537h16.976c6.9 0 12.512-5.624 12.512-12.537v-17.01C42 6.292 36.387.668 29.488.668zm8.287 29.548c0 4.586-3.71 8.303-8.287 8.303H12.512c-4.577 0-8.287-3.717-8.287-8.303v-17.01c0-4.586 3.71-8.304 8.287-8.304h16.976c4.577 0 8.287 3.718 8.287 8.303v17.01z" fill="#C8C8C8"/><path d="M21 10.826c-5.99 0-10.863 4.883-10.863 10.884 0 6.002 4.873 10.885 10.863 10.885 5.99 0 10.863-4.883 10.863-10.884 0-6.002-4.873-10.885-10.863-10.885zm0 17.535c-3.666 0-6.637-2.977-6.637-6.65 0-3.674 2.971-6.651 6.637-6.651 3.666 0 6.637 2.977 6.637 6.65 0 3.674-2.971 6.651-6.637 6.651zm10.883-14.845a2.606 2.606 0 0 0 2.603-2.608A2.606 2.606 0 0 0 31.883 8.3a2.605 2.605 0 0 0-2.602 2.608 2.605 2.605 0 0 0 2.602 2.608z" fill="#C8C8C8"/></svg>