<svg width="42" height="43" fill="none" xmlns="http://www.w3.org/2000/svg"><path d="M21 29.449c4.197 0 7.6-3.41 7.6-7.616 0-4.205-3.403-7.615-7.6-7.615-4.197 0-7.6 3.41-7.6 7.615 0 4.206 3.403 7.616 7.6 7.616Z" stroke="#C8C8C8" stroke-width="4" stroke-linecap="round" stroke-linejoin="round"/><path d="M28.6 14.217v9.52c0 1.515.6 2.967 1.67 4.038a5.694 5.694 0 0 0 8.06 0A5.717 5.717 0 0 0 40 23.737v-1.904c0-4.297-1.451-8.467-4.117-11.833a18.995 18.995 0 0 0-10.565-6.706A18.965 18.965 0 0 0 12.882 4.62a19.018 19.018 0 0 0-8.919 8.785 19.073 19.073 0 0 0-1.537 12.437 19.045 19.045 0 0 0 6.51 10.7 18.975 18.975 0 0 0 23.616.407" stroke="#C8C8C8" stroke-width="4" stroke-linecap="round" stroke-linejoin="round"/></svg>