<svg width="147" height="110" fill="none" xmlns="http://www.w3.org/2000/svg"><path d="M126.302 63.235c-5.118.026-9.565 1.259-13.289 3.08-1.366-2.705-2.733-5.116-2.974-6.885-.268-2.063-.589-3.322-.268-5.787.322-2.464 1.769-5.974 1.742-6.242-.027-.268-.322-1.527-3.269-1.554-2.947-.027-5.492.563-5.787 1.34-.294.777-.857 2.545-1.232 4.367-.509 2.679-5.894 12.243-8.975 17.253-.992-1.956-1.849-3.67-2.036-5.037-.268-2.062-.59-3.322-.268-5.786.321-2.465 1.768-5.975 1.741-6.243-.027-.268-.321-1.527-3.268-1.554-2.947-.026-5.493.563-5.787 1.34-.295.777-.617 2.599-1.233 4.367-.616 1.768-7.77 17.736-9.645 21.862a123.4 123.4 0 0 1-2.384 4.956s-.027.08-.107.214a67.83 67.83 0 0 1-.804 1.528v.026c-.402.724-.83 1.393-1.045 1.393-.16 0-.455-1.929.054-4.554 1.071-5.546 3.617-14.173 3.59-14.468 0-.16.482-1.66-1.661-2.438-2.09-.776-2.84.51-3.028.51-.187 0-.321.455-.321.455s2.33-9.699-4.448-9.699c-4.233 0-10.073 4.635-12.967 8.815-1.822.991-5.706 3.108-9.859 5.385-1.58.884-3.215 1.768-4.742 2.599-.107-.107-.214-.241-.321-.349-8.199-8.76-23.362-14.95-22.72-26.71.242-4.287 1.715-15.54 29.123-29.203C62.672 5.097 80.622 8.178 83.73 15.01c4.447 9.752-9.618 27.863-32.927 30.489-8.894.991-13.556-2.438-14.735-3.724-1.232-1.34-1.42-1.42-1.875-1.152-.75.402-.268 1.607 0 2.304.696 1.822 3.563 5.037 8.412 6.617 4.287 1.394 14.709 2.17 27.328-2.706 14.119-5.465 25.157-20.656 21.915-33.382C88.606.543 67.173-3.717 46.892 3.49c-12.056 4.287-25.13 11.038-34.534 19.826C1.186 33.764-.582 42.846.14 46.65c2.6 13.504 21.22 22.29 28.668 28.8-.375.215-.724.402-1.018.563-3.724 1.849-17.924 9.27-21.46 17.12-4.019 8.895.643 15.271 3.724 16.128 9.564 2.653 19.397-2.116 24.675-9.993 5.278-7.877 4.635-18.11 2.197-22.8-.027-.053-.054-.106-.108-.16.965-.563 1.956-1.152 2.92-1.715a142.463 142.463 0 0 1 5.386-3.027c-.911 2.491-1.581 5.465-1.903 9.752-.401 5.037 1.662 11.574 4.368 14.146 1.205 1.125 2.625 1.152 3.536 1.152 3.161 0 4.581-2.626 6.162-5.734 1.929-3.804 3.67-8.225 3.67-8.225s-2.17 11.95 3.724 11.95c2.144 0 4.314-2.787 5.278-4.207v.027s.054-.08.161-.268l.348-.563v-.053c.858-1.5 2.787-4.903 5.653-10.556 3.698-7.287 7.26-16.396 7.26-16.396s.322 2.223 1.42 5.92c.644 2.17 1.983 4.555 3.055 6.86a45.914 45.914 0 0 1-1.393 1.875l.027.026c-.697.911-1.447 1.903-2.278 2.867-2.92 3.483-6.403 7.475-6.885 8.627-.563 1.366-.429 2.358.643 3.161.777.59 2.17.67 3.59.59 2.626-.188 4.474-.83 5.385-1.233 1.42-.509 3.081-1.286 4.635-2.438 2.867-2.116 4.608-5.144 4.447-9.136-.08-2.197-.803-4.393-1.688-6.456.268-.375.51-.75.777-1.126 4.528-6.617 8.038-13.878 8.038-13.878s.321 2.224 1.42 5.921c.536 1.876 1.634 3.912 2.599 5.895-4.26 3.456-6.886 7.474-7.824 10.1-1.687 4.876-.375 7.073 2.117 7.582 1.125.24 2.733-.295 3.911-.804a17.814 17.814 0 0 0 4.957-2.545c2.867-2.117 5.626-5.064 5.465-9.056-.08-1.821-.562-3.616-1.232-5.358 3.617-1.5 8.278-2.33 14.226-1.634 12.753 1.5 15.271 9.457 14.789 12.806-.482 3.349-3.161 5.17-4.046 5.733-.884.563-1.178.75-1.098 1.152.107.59.536.563 1.286.456 1.045-.188 6.698-2.706 6.939-8.868.402-7.877-7.1-16.477-20.361-16.396ZM27.924 96.402c-4.233 4.609-10.127 6.35-12.673 4.876-2.732-1.58-1.66-8.385 3.537-13.261 3.161-2.974 7.233-5.734 9.94-7.421.616-.376 1.526-.911 2.625-1.581.188-.107.295-.16.295-.16l.643-.403c1.902 6.966.08 13.101-4.367 17.95Zm30.81-20.95c-1.474 3.59-4.555 12.779-6.43 12.27-1.608-.429-2.599-7.394-.322-14.28 1.152-3.456 3.59-7.582 5.01-9.19 2.304-2.571 4.85-3.428 5.466-2.384.777 1.367-2.813 11.333-3.724 13.584Zm25.425 12.163c-.617.321-1.206.536-1.474.375-.187-.107.268-.536.268-.536s3.188-3.43 4.447-4.983c.724-.911 1.581-1.983 2.492-3.188v.348c0 4.1-3.965 6.859-5.733 7.984Zm19.611-4.474c-.455-.322-.375-1.394 1.152-4.742.589-1.313 1.983-3.51 4.367-5.627.268.858.455 1.688.429 2.465-.027 5.171-3.724 7.1-5.948 7.904Z" fill="#CD6799"/></svg>