<svg width="110" height="110" fill="none" xmlns="http://www.w3.org/2000/svg"><path d="M12.8 51.8h-9c-1.9 0-3.5 1.6-3.5 3.5s1.6 3.5 3.5 3.5h9c1.9 0 3.5-1.6 3.5-3.5s-1.6-3.5-3.5-3.5zm93.7 0h-9c-1.9 0-3.5 1.6-3.5 3.5s1.6 3.5 3.5 3.5h9c1.9 0 3.5-1.6 3.5-3.5s-1.6-3.5-3.5-3.5zM54.8 94h-.2c-1.9.1-3.4 1.7-3.3 3.7l.4 9c.1 1.9 1.6 3.3 3.5 3.3h.2c1.9-.1 3.4-1.7 3.3-3.7l-.4-9c-.1-1.8-1.7-3.3-3.5-3.3zM87 79.5c-1 0-1.9.4-2.6 1.1-1.3 1.4-1.2 3.7.2 4.9l6.7 6c.7.6 1.5.9 2.3.9 1 0 1.9-.4 2.6-1.1 1.3-1.4 1.2-3.7-.2-4.9l-6.7-6c-.7-.6-1.5-.9-2.3-.9zm-63.4 0c-.8 0-1.7.3-2.3.9l-6.7 6c-1.4 1.3-1.5 3.5-.2 4.9.7.8 1.6 1.1 2.6 1.1.8 0 1.7-.3 2.3-.9l6.7-6c1.4-1.3 1.5-3.5.2-4.9-.7-.7-1.6-1.1-2.6-1.1z" fill="#498C6C"/><path d="M6.7 37.8s31.7-29.9 60.4-1.3" stroke="#498C6C" stroke-width="7" stroke-miterlimit="10"/><path d="m74.7 34.5-13.8 25c-1.5 2.7-4.2 4.3-7.2 4.3-2.2 0-4.2-.9-5.8-2.4-1.8-1.8-2.7-4.4-2.3-7 .4-2.6 1.9-4.8 4.2-6.1l15-8.3 9.9-5.5zm17.9-17.9L61.3 33.9l-15 8.3c-8.9 4.9-10.6 17-3.4 24.1 3 3 6.9 4.5 10.8 4.5 5.3 0 10.5-2.7 13.4-7.9l25.5-46.3z" fill="#67BF97"/><path d="M55 7c26.5 0 48 21.5 48 48s-21.5 48-48 48S7 81.5 7 55 28.5 7 55 7zm0-7C24.6 0 0 24.6 0 55s24.6 55 55 55 55-24.6 55-55S85.4 0 55 0z" fill="#67BF97"/></svg>