<svg width="42" height="27" fill="none" xmlns="http://www.w3.org/2000/svg"><path d="M41.774 23.597c-1.716-3.093-6.134-6.81-7.958-8.427a1.19 1.19 0 0 1-.099-1.699c3.482-3.748 6.266-8.055 7.224-10.658.423-1.15-.452-2.364-1.685-2.364h-3.583c-1.18 0-1.872.425-2.201 1.1-2.893 5.942-5.375 8.513-7.112 10.015-.973.842-2.49.145-2.49-1.136v-7.92a1.992 1.992 0 0 0-2-1.984L15.327.449c-.823 0-1.294.934-.8 1.59l1.081 1.554c.407.538.626 1.194.626 1.866l-.006 7c0 1.217-1.472 1.812-2.347.959-2.958-2.887-5.525-8.782-6.449-11.6A1.993 1.993 0 0 0 5.537.449L2.007.44C.685.44-.283 1.698.077 2.965c3.224 11.34 9.84 22.13 21.63 23.299 1.162.115 2.164-.823 2.164-1.983v-3.678c0-1.055.826-1.962 1.887-1.989h.112c3.119 0 6.611 4.547 7.833 6.674a1.976 1.976 0 0 0 1.718.985h4.747c1.385 0 2.274-1.471 1.607-2.676z" fill="#C8C8C8"/></svg>