<svg width="42" height="32" fill="none" xmlns="http://www.w3.org/2000/svg"><path d="M36.234 4.041C33.027 1.478 28.445.77 26.46.559h-.076c-.306 0-.592.173-.688.46-.172.44.096.918.535.994 2.233.46 4.81 1.263 7.159 2.736a.905.905 0 0 1 .21 1.377c-.306.344-.82.383-1.222.153C27.796 3.448 22.108 3.295 21 3.295c-1.107 0-6.796.153-11.378 2.984-.401.23-.917.191-1.222-.153a.905.905 0 0 1 .21-1.377c2.348-1.473 4.926-2.277 7.16-2.736.438-.076.706-.554.534-.994-.096-.287-.382-.46-.688-.46h-.076c-1.985.21-6.567.919-9.775 3.482C3.895 5.781.172 15.786 0 24.643c0 .593.153 1.186.496 1.665 2.234 3.156 7.083 5.05 10.748 5.318a1.59 1.59 0 0 0 1.413-.67c.02 0 .02-.019.038-.038.669-.918.268-2.22-.801-2.62-3.055-1.13-4.62-2.468-4.716-2.564a.934.934 0 0 1-.095-1.301.91.91 0 0 1 1.298-.076c.057.038 4.295 3.653 12.619 3.653s12.562-3.615 12.62-3.654a.91.91 0 0 1 1.297.077.934.934 0 0 1-.095 1.3c-.096.096-1.661 1.436-4.716 2.564-1.069.402-1.47 1.703-.802 2.62.02.02.02.04.039.04.324.458.859.707 1.413.669 3.665-.268 8.514-2.162 10.748-5.318.343-.479.496-1.072.496-1.665-.172-8.857-3.895-18.861-5.766-20.602zm-21.171 17.56c-1.757 0-3.189-1.644-3.189-3.653 0-2.028 1.432-3.673 3.189-3.673 1.775 0 3.188 1.645 3.188 3.673 0 2.009-1.413 3.654-3.188 3.654zm11.874 0c-1.775 0-3.188-1.644-3.188-3.653 0-2.028 1.413-3.673 3.188-3.673 1.757 0 3.188 1.645 3.188 3.673 0 2.009-1.431 3.654-3.188 3.654z" fill="#C8C8C8"/></svg>