<svg width="70" height="105" viewBox="0 0 70 105" fill="none" xmlns="http://www.w3.org/2000/svg">
<path d="M52.5 70C62.165 70 70 62.165 70 52.5C70 42.835 62.165 35 52.5 35C42.835 35 35 42.835 35 52.5C35 62.165 42.835 70 52.5 70Z" fill="#19BCFE"/>
<path fill-rule="evenodd" clip-rule="evenodd" d="M17.5 105C27.165 105 35 97.165 35 87.5C35 84.8616 35 79.0283 35 70C27.1383 70 21.305 70 17.5 70C7.83502 70 0 77.835 0 87.5C0 97.165 7.83502 105 17.5 105Z" fill="#09CF83"/>
<path fill-rule="evenodd" clip-rule="evenodd" d="M17.5 70C20.7217 70 26.555 70 35 70V35C26.555 35 20.7217 35 17.5 35C7.83502 35 0 42.835 0 52.5C0 62.165 7.83502 70 17.5 70Z" fill="#A259FF"/>
<path fill-rule="evenodd" clip-rule="evenodd" d="M17.5 35C20.7217 35 26.555 35 35 35V0C26.555 0 20.7217 0 17.5 0C7.83502 0 0 7.83502 0 17.5C0 27.165 7.83502 35 17.5 35Z" fill="#F24E1E"/>
<path fill-rule="evenodd" clip-rule="evenodd" d="M52.5 35H35V0H52.5C62.165 0 70 7.83502 70 17.5C70 27.165 62.165 35 52.5 35Z" fill="#FF7262"/>
</svg>
