<svg xmlns="http://www.w3.org/2000/svg" viewBox="0 0 1376 496" fill="#69c89a"><rect x="1272.36" y="263.442" width="250" height="220" rx="15" transform="rotate(11.263 1272.36 263.442)"/><rect x="992.85" y="207.778" width="250" height="220" rx="15" transform="rotate(11.263 992.85 207.778)"/><rect x="-125.195" y="-14.877" width="250" height="220" rx="15" transform="rotate(11.263 -125.195 -14.877)"/><rect x="713.339" y="152.114" width="250" height="220" rx="15" transform="rotate(11.263 713.339 152.114)"/><rect x="433.828" y="96.45" width="250" height="220" rx="15" transform="rotate(11.263 433.828 96.45)"/><rect x="154.316" y="40.787" width="250" height="220" rx="15" transform="rotate(11.263 154.316 40.787)"/><rect x="1026.8" y="473.319" width="250" height="220" rx="15" transform="rotate(11.263 1026.8 473.319)"/><rect x="747.293" y="417.655" width="250" height="220" rx="15" transform="rotate(11.263 747.293 417.655)"/><rect x="467.781" y="361.991" width="250" height="220" rx="15" transform="rotate(11.263 467.781 361.991)"/><rect x="188.27" y="306.328" width="250" height="220" rx="15" transform="rotate(11.263 188.27 306.328)"/><rect x="-91.241" y="250.664" width="250" height="220" rx="15" transform="rotate(11.263 -91.241 250.664)"/><rect x="1388.8" y="25.319" width="250" height="220" rx="15" transform="rotate(11.263 1388.8 25.319)"/><rect x="1109.29" y="-30.345" width="250" height="220" rx="15" transform="rotate(11.263 1109.29 -30.345)"/><rect x="-8.752" y="-253" width="250" height="220" rx="15" transform="rotate(11.263 -8.752 -253)"/><rect x="829.781" y="-86.009" width="250" height="220" rx="15" transform="rotate(11.263 829.781 -86.009)"/><rect x="550.27" y="-141.672" width="250" height="220" rx="15" transform="rotate(11.263 550.27 -141.672)"/><rect x="270.759" y="-197.336" width="250" height="220" rx="15" transform="rotate(11.263 270.759 -197.336)"/></svg>