<svg width="113" height="110" viewBox="0 0 113 110" fill="none" xmlns="http://www.w3.org/2000/svg">
<path d="M19.9786 0H92.8419C103.889 0 112.821 8.93162 112.821 19.9786V90.0214C112.821 101.068 103.889 110 92.8419 110H19.9786C8.93162 110 0 101.068 0 90.0214V19.9786C0 8.93162 8.93162 0 19.9786 0Z" fill="#001E36"/>
<path d="M25.3846 77.141V28.7692C25.3846 28.4402 25.5256 28.2521 25.8547 28.2521C26.6538 28.2521 27.406 28.2521 28.4872 28.2051C29.6154 28.1581 30.7906 28.1581 32.0598 28.1111C33.3291 28.0641 34.6923 28.0641 36.1496 28.0171C37.6068 27.9701 39.0171 27.9701 40.4273 27.9701C44.282 27.9701 47.4786 28.4402 50.1111 29.4274C52.4615 30.2265 54.6239 31.5427 56.4103 33.2821C57.9145 34.7863 59.0897 36.6197 59.8419 38.641C60.547 40.6154 60.9231 42.6368 60.9231 44.7521C60.9231 48.7949 59.9829 52.1325 58.1026 54.765C56.2222 57.3975 53.5897 59.3718 50.5342 60.5C47.3376 61.6752 43.812 62.0983 39.9573 62.0983C38.8291 62.0983 38.0769 62.0983 37.6068 62.0513C37.1367 62.0043 36.4786 62.0043 35.5855 62.0043V77.094C35.6325 77.4231 35.3974 77.7051 35.0684 77.7522C35.0214 77.7522 34.9744 77.7522 34.8803 77.7522H25.9487C25.5726 77.7522 25.3846 77.5641 25.3846 77.141ZM35.6325 37.3248V53.1197C36.2906 53.1667 36.9017 53.2137 37.4658 53.2137H39.9573C41.7906 53.2137 43.6239 52.9316 45.3632 52.3675C46.8675 51.9445 48.1838 51.0513 49.2179 49.8761C50.2051 48.7009 50.6752 47.1026 50.6752 45.0342C50.7222 43.5769 50.3462 42.1197 49.594 40.8504C48.7949 39.6282 47.6667 38.688 46.3034 38.171C44.5641 37.4658 42.6838 37.1838 40.7564 37.2308C39.5342 37.2308 38.453 37.2308 37.5598 37.2778C36.6197 37.2308 35.9615 37.2778 35.6325 37.3248Z" fill="#31A8FF"/>
<path d="M90.2564 50.2521C88.8461 49.5 87.3419 48.9829 85.7436 48.6538C84.0043 48.2778 82.2649 48.0427 80.4786 48.0427C79.5384 47.9957 78.5513 48.1367 77.6581 48.3718C77.047 48.5128 76.5299 48.8419 76.2008 49.3119C75.9658 49.688 75.8248 50.1581 75.8248 50.5812C75.8248 51.0043 76.0128 51.4273 76.2949 51.8034C76.7179 52.3205 77.282 52.7436 77.8931 53.0726C78.9743 53.6367 80.1026 54.1538 81.2308 54.6239C83.7692 55.4701 86.2137 56.6453 88.4701 58.0555C90.0214 59.0427 91.2906 60.359 92.1838 61.9572C92.9359 63.4615 93.312 65.1068 93.2649 66.7991C93.312 69.0085 92.6538 71.2179 91.4316 73.0513C90.1154 74.9316 88.282 76.3889 86.1667 77.235C83.8632 78.2222 81.0427 78.7393 77.6581 78.7393C75.4957 78.7393 73.3803 78.5513 71.2649 78.1282C69.6196 77.8461 67.9743 77.329 66.4701 76.6239C66.141 76.4359 65.906 76.1068 65.953 75.7308V67.5513C65.953 67.4102 66 67.2222 66.141 67.1282C66.282 67.0342 66.4231 67.0812 66.5641 67.1752C68.3974 68.2564 70.3248 69.0085 72.3932 69.4786C74.1795 69.9487 76.0598 70.1837 77.9402 70.1837C79.7265 70.1837 80.9957 69.9487 81.8419 69.5256C82.594 69.1966 83.1111 68.3974 83.1111 67.5513C83.1111 66.8931 82.735 66.282 81.9829 65.6709C81.2308 65.0598 79.6795 64.3547 77.3761 63.4615C74.9786 62.6154 72.7692 61.4872 70.7008 60.0769C69.2436 59.0427 68.0214 57.6795 67.1282 56.0812C66.3761 54.5769 66 52.9316 66.047 51.2863C66.047 49.2649 66.6111 47.3376 67.6453 45.5983C68.8205 43.7179 70.5598 42.2137 72.5812 41.2735C74.7906 40.1453 77.5641 39.6282 80.9017 39.6282C82.8291 39.6282 84.8034 39.7692 86.7308 40.0513C88.141 40.2393 89.5043 40.6154 90.7735 41.1325C90.9615 41.1795 91.1496 41.3675 91.2436 41.5555C91.2906 41.7436 91.3376 41.9316 91.3376 42.1196V49.782C91.3376 49.9701 91.2436 50.1581 91.1026 50.2521C90.6795 50.3461 90.4444 50.3461 90.2564 50.2521Z" fill="#31A8FF"/>
</svg>
