<svg width="147" height="110" viewBox="0 0 147 110" fill="none" xmlns="http://www.w3.org/2000/svg">
<path d="M126.302 63.2347C121.184 63.2615 116.737 64.4939 113.013 66.3157C111.647 63.6098 110.28 61.1986 110.039 59.4303C109.771 57.3674 109.45 56.1082 109.771 53.6434C110.093 51.1786 111.54 47.6689 111.513 47.401C111.486 47.1331 111.191 45.8739 108.244 45.8471C105.297 45.8203 102.752 46.4097 102.457 47.1867C102.163 47.9636 101.6 49.7319 101.225 51.5537C100.716 54.2328 95.3307 63.7973 92.2497 68.8073C91.2584 66.8515 90.4011 65.1369 90.2136 63.7705C89.9457 61.7076 89.6242 60.4484 89.9457 57.9836C90.2672 55.5188 91.7139 52.0091 91.6871 51.7412C91.6603 51.4733 91.3656 50.2141 88.4186 50.1873C85.4715 50.1605 82.9263 50.7499 82.6316 51.5269C82.3369 52.3038 82.0154 54.1256 81.3992 55.8939C80.783 57.6621 73.6297 73.6297 71.7543 77.7556C70.7898 79.8721 69.9593 81.56 69.3699 82.712C69.3699 82.712 69.3431 82.7924 69.2627 82.9264C68.7537 83.9176 68.459 84.4535 68.459 84.4535C68.459 84.4535 68.459 84.4535 68.459 84.4803C68.0571 85.2036 67.6284 85.8734 67.4141 85.8734C67.2534 85.8734 66.9587 83.9444 67.4677 81.3189C68.5394 75.7731 71.0845 67.1462 71.0577 66.8515C71.0577 66.6908 71.54 65.1905 69.3967 64.4135C67.3069 63.6366 66.5568 64.9226 66.3692 64.9226C66.1817 64.9226 66.0478 65.378 66.0478 65.378C66.0478 65.378 68.3786 55.6795 61.6004 55.6795C57.3673 55.6795 51.5268 60.3144 48.6334 64.4939C46.8115 65.4852 42.9268 67.6017 38.7741 69.879C37.1934 70.7631 35.5592 71.6472 34.0321 72.4777C33.9249 72.3706 33.8177 72.2366 33.7106 72.1294C25.5124 63.3687 10.3485 57.1799 10.9915 45.4184C11.2326 41.1318 12.7061 29.8794 40.1137 16.2158C62.672 5.09743 80.6223 8.17843 83.7301 15.0102C88.1774 24.7623 74.112 42.8733 50.8035 45.4988C41.9087 46.4901 37.247 43.0608 36.0682 41.7748C34.8358 40.4352 34.6483 40.3549 34.1928 40.6228C33.4427 41.0247 33.9249 42.2303 34.1928 42.9268C34.8894 44.7487 37.7561 47.9636 42.6053 49.5443C46.8919 50.9375 57.3138 51.7144 69.9325 46.8384C84.0516 41.3729 95.0896 26.1822 91.8478 13.4563C88.6061 0.542894 67.173 -3.71693 46.8919 3.48994C34.8358 7.77656 21.7616 14.528 12.3578 23.3156C1.18584 33.7642 -0.582386 42.8465 0.140981 46.6508C2.73974 60.1537 21.3597 68.9413 28.8077 75.4516C28.4327 75.6659 28.0844 75.8534 27.7897 76.0142C24.0657 77.8628 9.86625 85.284 6.32979 93.1339C2.31108 102.029 6.97278 108.405 10.0538 109.262C19.6183 111.915 29.4507 107.146 34.7286 99.2691C40.0065 91.3924 39.3635 81.1581 36.9255 76.4696C36.8987 76.4161 36.8719 76.3625 36.8184 76.3089C37.7829 75.7463 38.7741 75.1569 39.7386 74.5942C41.6408 73.469 43.5162 72.4241 45.1237 71.5668C44.2128 74.0584 43.543 77.0323 43.2215 81.3189C42.8196 86.3557 44.8826 92.8927 47.5885 95.4647C48.7941 96.59 50.214 96.6167 51.125 96.6167C54.2863 96.6167 55.7063 93.9912 57.287 90.8834C59.216 87.079 60.9574 82.6584 60.9574 82.6584C60.9574 82.6584 58.7873 94.6074 64.6814 94.6074C66.8247 94.6074 68.9948 91.8211 69.9593 90.4011V90.4279C69.9593 90.4279 70.0129 90.3476 70.12 90.16C70.3344 89.8117 70.4683 89.5974 70.4683 89.5974V89.5438C71.3257 88.0435 73.2546 84.641 76.1213 78.988C79.8185 71.7008 83.3818 62.5917 83.3818 62.5917C83.3818 62.5917 83.7033 64.8154 84.8017 68.5126C85.4447 70.6827 86.7843 73.0671 87.8559 75.3712C86.9986 76.5768 86.4628 77.2466 86.4628 77.2466C86.4628 77.2466 86.4628 77.2466 86.4896 77.2734C85.793 78.1843 85.0428 79.1756 84.2123 80.1401C81.292 83.6229 77.8092 87.6148 77.3269 88.7669C76.7643 90.1332 76.8983 91.1245 77.9699 91.9283C78.7469 92.5177 80.14 92.598 81.56 92.5177C84.1855 92.3301 86.0341 91.6871 86.945 91.2853C88.365 90.7762 90.026 89.9993 91.5799 88.8472C94.4466 86.7307 96.188 83.7033 96.0273 79.7114C95.9469 77.5145 95.2236 75.3176 94.3394 73.2547C94.6074 72.8796 94.8485 72.5045 95.1164 72.1294C99.6441 65.512 103.154 58.2515 103.154 58.2515C103.154 58.2515 103.475 60.4752 104.574 64.1724C105.11 66.0478 106.208 68.0839 107.173 70.0665C102.913 73.5226 100.287 77.5413 99.3494 80.1668C97.6616 85.0429 98.9744 87.2398 101.466 87.7488C102.591 87.9899 104.199 87.4541 105.377 86.9451C106.878 86.4628 108.646 85.6323 110.334 84.3999C113.201 82.2834 115.96 79.3363 115.799 75.3444C115.719 73.5226 115.237 71.7276 114.567 69.9861C118.184 68.4858 122.845 67.6553 128.793 68.3519C141.546 69.8522 144.064 77.8092 143.582 81.1581C143.1 84.507 140.421 86.3289 139.536 86.8915C138.652 87.4541 138.358 87.6416 138.438 88.0435C138.545 88.6329 138.974 88.6061 139.724 88.499C140.769 88.3114 146.422 85.793 146.663 79.631C147.065 71.7544 139.563 63.1543 126.302 63.2347ZM27.9236 96.4024C23.6906 101.011 17.7965 102.752 15.2513 101.278C12.5186 99.6977 13.5903 92.8927 18.7878 88.0167C21.9492 85.0429 26.0214 82.2834 28.7274 80.5955C29.3436 80.2204 30.2545 79.6846 31.3529 79.0148C31.5405 78.9076 31.6476 78.8541 31.6476 78.8541C31.862 78.7201 32.0763 78.5862 32.2906 78.4522C34.1928 85.418 32.371 91.5532 27.9236 96.4024ZM58.7337 75.4516C57.2602 79.0416 54.1792 88.231 52.3038 87.722C50.6963 87.2933 49.705 80.3276 51.9823 73.4422C53.1343 69.9861 55.5723 65.8603 56.9923 64.2528C59.2963 61.6808 61.8415 60.8235 62.4577 61.8683C63.2347 63.2347 59.6446 73.2011 58.7337 75.4516ZM84.1587 87.6148C83.5425 87.9363 82.9531 88.1507 82.6852 87.9899C82.4977 87.8828 82.9531 87.4541 82.9531 87.4541C82.9531 87.4541 86.1413 84.0248 87.4005 82.4709C88.1238 81.56 88.9812 80.4883 89.8921 79.2827V79.631C89.8921 83.7301 85.9269 86.4896 84.1587 87.6148ZM103.77 83.1407C103.315 82.8192 103.395 81.7475 104.922 78.3986C105.511 77.0858 106.905 74.8889 109.289 72.7724C109.557 73.6298 109.744 74.4603 109.718 75.2372C109.691 80.408 105.994 82.3369 103.77 83.1407Z" fill="#CD6799"/>
</svg>
