<svg width="22" height="22" viewBox="0 0 22 22" fill="none" xmlns="http://www.w3.org/2000/svg">
<path d="M21.8221 0.156452C21.71 0.0504685 21.5418 0 21.338 0C19.6617 0 15.1219 3.30064 11.3057 7.15643C9.13004 9.35685 8.0193 10.8961 7.58621 12.0064C7.9174 12.1175 8.24858 12.2689 8.58996 12.4708C8.85491 12.6272 9.10457 12.8139 9.32876 13.0209C9.76184 13.4246 10.093 13.899 10.307 14.4138C11.4178 13.9242 12.9208 12.7938 15.015 10.6741C19.3 6.33379 22.8462 1.13049 21.8221 0.156452Z" fill="#C8C8C8"/>
<path d="M7.90437 13.5492C7.29921 13.1941 6.73088 12.9853 6.17833 12.9174C6.04677 12.9017 5.92048 12.8965 5.78892 12.8965C5.36267 12.8965 4.93642 12.98 4.5207 13.1471C2.89464 13.7947 2.73677 15.3195 2.59995 16.6668C2.42629 18.3379 2.23159 19.3823 0.526593 19.7478C0.210853 19.8105 -0.0101642 20.0872 0.000360418 20.4058C0.0108851 20.7243 0.24769 20.9854 0.563429 21.0324C1.52117 21.1734 2.42629 21.2413 3.25774 21.2413C5.07851 21.2413 6.57827 20.9123 7.71493 20.2648C8.76213 19.6695 9.45676 18.8235 9.73566 17.8209C9.88827 17.2673 9.8988 16.6981 9.78829 16.1498C9.57779 15.1054 8.90948 14.1446 7.90437 13.5492Z" fill="#C8C8C8"/>
</svg>
