<svg width="111" height="110" fill="none" xmlns="http://www.w3.org/2000/svg"><path d="M106.724 11.652 83.942.683a6.887 6.887 0 0 0-7.858 1.335l-74.581 68a4.607 4.607 0 0 0 .005 6.814L7.6 82.37a4.607 4.607 0 0 0 5.883.262l89.813-68.134c3.013-2.286 7.341-.137 7.341 3.645v-.264a6.91 6.91 0 0 0-3.913-6.227z" fill="#0065A9"/><path d="m106.724 98.347-22.782 10.97a6.886 6.886 0 0 1-7.858-1.336l-74.581-68a4.607 4.607 0 0 1 .005-6.813L7.6 27.629a4.607 4.607 0 0 1 5.883-.261l89.813 68.134c3.013 2.285 7.341.136 7.341-3.645v.264a6.91 6.91 0 0 1-3.913 6.226z" fill="#007ACC"/><path d="M83.943 109.319a6.89 6.89 0 0 1-7.859-1.338c2.55 2.55 6.91.744 6.91-2.862V4.881c0-3.607-4.36-5.413-6.91-2.863a6.891 6.891 0 0 1 7.86-1.337l22.777 10.954a6.91 6.91 0 0 1 3.916 6.228v74.274a6.91 6.91 0 0 1-3.916 6.228l-22.778 10.954z" fill="#1F9CF0"/><path style="mix-blend-mode:overlay" fill-rule="evenodd" clip-rule="evenodd" d="M78.407 109.53a6.882 6.882 0 0 0 5.485-.211l22.765-10.954a6.911 6.911 0 0 0 3.913-6.228V17.863a6.911 6.911 0 0 0-3.913-6.228L83.892.681a6.884 6.884 0 0 0-7.854 1.337l-43.58 39.76-18.983-14.41a4.602 4.602 0 0 0-5.88.261l-6.088 5.539a4.61 4.61 0 0 0-.005 6.813L17.964 55 1.502 70.019a4.609 4.609 0 0 0 .005 6.813l6.088 5.538a4.602 4.602 0 0 0 5.88.262l18.983-14.41 43.58 39.759c.69.69 1.499 1.21 2.37 1.549zm4.537-79.63L49.877 55l33.067 25.1V29.9z" fill="url(#a)"/><defs><linearGradient id="a" x1="55.285" y1="0" x2="55.285" y2="110" gradientUnits="userSpaceOnUse"><stop stop-color="#fff"/><stop offset="1" stop-color="#fff" stop-opacity="0"/></linearGradient></defs></svg>