<svg width="113" height="111" fill="none" xmlns="http://www.w3.org/2000/svg"><path d="M28.3 76.4h1c1.7.2 3.6.9 5.7 2.2 3.1 1.8 5.2 4.8 5.9 8.1.3 1.7.3 3.4-.1 5-.9 3.2-3.1 5.8-6.6 7.8-4.5 2.6-10.6 3.9-18.2 3.9h-.7c3.4-4.4 4-10.1 4.4-14.8.8-7.5 1.5-10.1 5-11.5 1.2-.5 2.4-.7 3.6-.7zm0-7c-2.1 0-4.2.4-6.2 1.2-7.9 3.2-8.7 10.7-9.4 17.3-.8 8.2-1.8 13.3-10.1 15.1-1.5.3-2.6 1.7-2.6 3.2.1 1.6 1.2 2.8 2.7 3.1 4.7.7 9.1 1 13.1 1 8.9 0 16.2-1.6 21.7-4.8 5.1-2.9 8.5-7.1 9.9-12 .7-2.7.8-5.5.3-8.2-1-5.1-4.3-9.9-9.2-12.8-3-1.7-5.7-2.8-8.4-3.1h-1.8z" fill="#4A8C6C"/><path d="M103.6 9.1c-4.2 8.5-15.1 24.3-32.1 41.7-6.6 6.7-12.3 11.7-16.9 15-.8-1-1.7-2-2.7-2.9-1.3-1.2-2.7-2.3-4.2-3.3 3.1-4.7 8-10.5 14.7-17.3 9.3-9.5 19.7-18.5 29-25.3 5.4-4.1 9.4-6.5 12.2-7.9zm5.6-9.1C100.5 0 77 17.2 57.3 37.4 47.4 47.5 41.8 54.9 39 60.5c-.5.9-.1 2 .8 2.6l3.4 2c1.4.8 2.7 1.8 3.8 2.9 1.7 1.6 3.2 3.5 4.2 5.5.4.7 1.1 1.1 1.8 1.1.3 0 .6-.1.9-.2 5.5-2.9 12.8-8.7 22.5-18.6C98.6 33.1 117 5.9 111.7.8c-.6-.5-1.5-.8-2.5-.8z" fill="#69C89A"/></svg>