<svg width="70" height="105" fill="none" xmlns="http://www.w3.org/2000/svg"><path d="M52.5 70C62.165 70 70 62.165 70 52.5S62.165 35 52.5 35 35 42.835 35 52.5 42.835 70 52.5 70Z" fill="#19BCFE"/><path fill-rule="evenodd" clip-rule="evenodd" d="M17.5 105c9.665 0 17.5-7.835 17.5-17.5V70H17.5C7.835 70 0 77.835 0 87.5S7.835 105 17.5 105Z" fill="#09CF83"/><path fill-rule="evenodd" clip-rule="evenodd" d="M17.5 70H35V35H17.5C7.835 35 0 42.835 0 52.5S7.835 70 17.5 70Z" fill="#A259FF"/><path fill-rule="evenodd" clip-rule="evenodd" d="M17.5 35H35V0H17.5C7.835 0 0 7.835 0 17.5S7.835 35 17.5 35Z" fill="#F24E1E"/><path fill-rule="evenodd" clip-rule="evenodd" d="M52.5 35H35V0h17.5C62.165 0 70 7.835 70 17.5S62.165 35 52.5 35Z" fill="#FF7262"/></svg>