<svg width="109" height="110" fill="none" xmlns="http://www.w3.org/2000/svg"><path d="M6.921 25.844c-9.65 14.528-8.447 33.428-1.076 48.869.175.366.35.733.538 1.1.114.229.223.467.35.691.066.138.145.27.215.4.127.247.253.48.385.733.233.421.466.841.7 1.26.13.229.262.463.402.692.265.449.537.895.814 1.338.114.193.227.367.35.56.385.6.778 1.2 1.18 1.787l.036.045c.061.097.136.188.201.285.35.504.7 1.008 1.076 1.503l.407.54c.327.431.66.86.998 1.284l.38.477c.45.559.914 1.1 1.4 1.659l.026.027.053.06c.464.527.936 1.044 1.4 1.558l.45.477c.372.389.744.774 1.129 1.154.153.156.306.312.464.459a46.01 46.01 0 0 0 1.544 1.466c.009.01.013.019.026.023.088.083.184.16.271.239.467.418.934.832 1.4 1.242l.582.485c.385.324.775.643 1.168.958l.626.5c.433.334.87.664 1.312.98.162.12.315.239.481.367l.132.1c.42.303.848.597 1.273.885.183.129.35.262.551.367a75.28 75.28 0 0 0 1.995 1.279l.551.325c.494.303.989.596 1.496.88.271.156.551.303.827.449.35.197.7.394 1.072.582l.25.124.437.225c.56.281 1.125.556 1.697.825l.35.169c.653.3 1.314.588 1.982.866l.481.197c.617.248 1.242.495 1.868.734l.236.082c.7.252 1.4.486 2.1.715l.503.156c.56.211 1.278.431 2.017.605l.136.027c46.665 8.914 60.222-29.377 60.222-29.377-11.383 15.537-31.594 19.638-50.747 15.074-.726-.174-1.426-.408-2.14-.628l-.533-.17c-.7-.223-1.385-.456-2.056-.7l-.284-.106a57.659 57.659 0 0 1-1.811-.706l-.508-.21a65.19 65.19 0 0 1-1.96-.853l-.393-.184c-.556-.266-1.107-.527-1.654-.802l-.477-.243c-.429-.22-.853-.449-1.277-.682-.285-.156-.574-.303-.853-.468a51.966 51.966 0 0 1-1.532-.903l-.516-.302a75.064 75.064 0 0 1-1.995-1.279c-.183-.12-.35-.247-.538-.367a49.91 49.91 0 0 1-1.421-.99c-.154-.105-.307-.229-.46-.339-.452-.333-.9-.672-1.343-1.017-.201-.156-.398-.316-.595-.472-.407-.326-.814-.65-1.212-.995l-.538-.453c-.507-.44-1.01-.876-1.509-1.33l-.166-.146c-.534-.495-1.05-1-1.584-1.513l-.446-.449a46.586 46.586 0 0 1-1.137-1.168l-.447-.468c-.466-.51-.933-1.026-1.4-1.549l-.07-.078a64.523 64.523 0 0 1-1.417-1.69l-.363-.468c-.35-.436-.7-.876-1.02-1.32a15.973 15.973 0 0 1-.376-.486c-.402-.545-.796-1.1-1.18-1.64-10.631-15.189-14.45-36.143-5.95-53.347L6.92 25.844z" fill="#0668AB"/><path d="M36.875 13.598c-3.298 5.344-5.258 11.88-5.258 18.887 0 6.173 1.518 11.975 4.19 17.021l-.087-.179a46.57 46.57 0 0 0 3.18 5.546l-.096-.147a25.835 25.835 0 0 0 3.587 4.693l.005.005a43.112 43.112 0 0 0 1.566 1.7c.136.147.271.284.411.43.52.528 1.05 1.05 1.601 1.554.022.019.044.046.066.06.604.56 1.234 1.1 1.868 1.618l.424.348a44.614 44.614 0 0 0 1.951 1.494l.057.046c.293.21.595.412.893.614.144.1.28.202.424.293.477.321.958.633 1.448.93l.201.124c.425.257.85.505 1.282.734.149.087.302.165.455.247.298.16.595.326.897.486l.131.064c.617.321 1.234.624 1.868.912.136.064.272.12.411.179.503.225 1.02.445 1.532.65l.656.253c.464.179.936.348 1.4.513l.638.211c.552.22 1.23.43 1.93.596l.105.018c36.03 6.256 44.35-22.81 44.35-22.81C101.463 62 86.939 67.398 71.448 63.186a39.481 39.481 0 0 1-2.65-.83c-.482-.16-.954-.338-1.427-.517l-.643-.248a57.584 57.584 0 0 1-1.535-.65c-.14-.065-.28-.12-.412-.184a42.536 42.536 0 0 1-1.88-.912c-.32-.165-.63-.339-.941-.504l-.543-.293c-.402-.23-.8-.465-1.194-.706-.092-.055-.188-.11-.285-.17a45.32 45.32 0 0 1-1.443-.925c-.149-.101-.289-.206-.433-.303a39.12 39.12 0 0 1-.936-.65 48.472 48.472 0 0 1-1.947-1.495l-.438-.366c-6.776-5.55-11.89-13.03-14.611-21.646l-.088-.32c-1.032-3.181-1.631-6.848-1.631-10.656 0-6.132 1.544-11.889 4.252-16.861l-.083.17-5.705 8.478z" fill="#0668AB"/><path d="M62.069 4.45c-2.205 3.424-3.517 7.645-3.517 12.186 0 3.277.682 6.384 1.907 9.176l-.053-.138c3.194 7.457 9.008 13.18 16.183 15.967l.196.07c.298.118.591.22.897.325l.394.128c.341.133.77.266 1.207.371l.075.014c19.891 4.033 25.29-10.697 26.729-12.86-4.729 7.131-12.669 8.84-22.416 6.366a23.316 23.316 0 0 1-2.358-.766 27.06 27.06 0 0 1-2.97-1.297l.17.078a28.7 28.7 0 0 1-4.97-3.194l.07.055C64.892 23.997 59.476 10.765 65.167 0L62.07 4.45z" fill="#0668AB"/></svg>