<svg width="105" height="105" fill="none" xmlns="http://www.w3.org/2000/svg"><path d="M0 10C0 4.477 4.477 0 10 0h85c5.523 0 10 4.477 10 10v85c0 5.523-4.477 10-10 10H10c-5.523 0-10-4.477-10-10V10z" fill="#F7DF1E"/><path d="m27.608 87.746 8.035-4.863c1.55 2.748 2.96 5.074 6.343 5.074 3.243 0 5.287-1.268 5.287-6.202v-33.55h9.867v33.69c0 10.22-5.99 14.871-14.73 14.871-7.894 0-12.476-4.088-14.802-9.021M62.5 86.688l8.034-4.651c2.115 3.453 4.864 5.99 9.727 5.99 4.089 0 6.696-2.043 6.696-4.863 0-3.383-2.678-4.581-7.19-6.554l-2.466-1.058c-7.119-3.03-11.84-6.837-11.84-14.871 0-7.401 5.638-13.04 14.448-13.04 6.273 0 10.784 2.185 14.026 7.894l-7.683 4.934c-1.692-3.03-3.524-4.228-6.343-4.228-2.89 0-4.723 1.832-4.723 4.228 0 2.96 1.833 4.16 6.061 5.992l2.467 1.057c8.388 3.595 13.11 7.26 13.11 15.505 0 8.882-6.978 13.745-16.352 13.745-9.162 0-15.083-4.37-17.972-10.08" fill="#000"/></svg>