<svg width="113" height="110" fill="none" xmlns="http://www.w3.org/2000/svg"><path d="M19.979 0h72.863c11.047 0 19.979 8.932 19.979 19.979V90.02c0 11.047-8.932 19.979-19.98 19.979H19.98C8.932 110 0 101.068 0 90.021V19.98C0 8.932 8.932 0 19.979 0Z" fill="#001E36"/><path d="M25.385 77.141V28.769c0-.329.14-.517.47-.517.799 0 1.551 0 2.632-.047 1.128-.047 2.304-.047 3.573-.094 1.27-.047 2.632-.047 4.09-.094 1.457-.047 2.867-.047 4.277-.047 3.855 0 7.052.47 9.684 1.457 2.35.8 4.513 2.116 6.3 3.855a14.969 14.969 0 0 1 3.43 5.359c.706 1.974 1.082 3.996 1.082 6.111 0 4.043-.94 7.38-2.82 10.013s-4.513 4.607-7.569 5.735c-3.196 1.175-6.722 1.598-10.577 1.598-1.128 0-1.88 0-2.35-.047-.47-.047-1.128-.047-2.021-.047v15.09c.047.33-.189.611-.518.658H25.95c-.376 0-.564-.188-.564-.611Zm10.247-39.816V53.12c.659.047 1.27.094 1.834.094h2.491a17.56 17.56 0 0 0 5.406-.846c1.505-.424 2.82-1.317 3.855-2.492.987-1.175 1.457-2.773 1.457-4.842a7.737 7.737 0 0 0-1.081-4.184c-.8-1.222-1.927-2.162-3.29-2.679-1.74-.705-3.62-.987-5.548-.94-1.222 0-2.303 0-3.196.047-.94-.047-1.599 0-1.928.047Zm54.624 12.927c-1.41-.752-2.914-1.27-4.512-1.598-1.74-.376-3.48-.611-5.265-.611-.94-.047-1.928.094-2.82.329-.612.14-1.13.47-1.458.94a2.492 2.492 0 0 0-.376 1.27c0 .422.188.845.47 1.221.423.518.987.94 1.598 1.27a43.004 43.004 0 0 0 3.338 1.55 34.054 34.054 0 0 1 7.24 3.433 10.94 10.94 0 0 1 3.713 3.901 10.147 10.147 0 0 1 1.08 4.842 10.937 10.937 0 0 1-1.832 6.252 11.78 11.78 0 0 1-5.265 4.184c-2.304.987-5.124 1.504-8.509 1.504a32.38 32.38 0 0 1-6.393-.61c-1.645-.283-3.29-.8-4.795-1.505-.329-.188-.564-.517-.517-.893v-8.18c0-.14.047-.329.188-.423.141-.094.282-.047.423.047a20.123 20.123 0 0 0 5.83 2.304c1.785.47 3.666.705 5.546.705 1.787 0 3.056-.235 3.902-.658.752-.33 1.27-1.129 1.27-1.975 0-.658-.377-1.269-1.13-1.88-.751-.611-2.302-1.316-4.606-2.21a28.758 28.758 0 0 1-6.675-3.384 12.173 12.173 0 0 1-3.573-3.996 10.087 10.087 0 0 1-1.081-4.795c0-2.021.564-3.948 1.598-5.688 1.175-1.88 2.915-3.384 4.936-4.325 2.21-1.128 4.983-1.645 8.32-1.645 1.928 0 3.902.141 5.83.423 1.41.188 2.773.564 4.043 1.081.188.047.376.236.47.424.047.188.094.376.094.564v7.662a.579.579 0 0 1-.235.47c-.423.094-.659.094-.847 0Z" fill="#31A8FF"/></svg>