<svg width="42" height="39" fill="none" xmlns="http://www.w3.org/2000/svg"><path d="M41.207.83C40.49.22 39.365.134 38.202.602H38.2c-1.224.492-34.638 14.853-35.998 15.44-.248.086-2.409.894-2.186 2.693.199 1.623 1.935 2.295 2.147 2.372l8.495 2.915c.564 1.88 2.642 8.815 3.101 10.297.287.924.754 2.137 1.572 2.387.719.278 1.433.024 1.896-.34l5.193-4.826 8.384 6.551.2.12c.57.253 1.115.379 1.635.379a3.02 3.02 0 0 0 1.157-.227c1.256-.517 1.759-1.716 1.811-1.852L41.87 3.894c.382-1.742-.15-2.629-.663-3.064zM18.15 25.188l-2.865 7.657-2.866-9.572 21.97-16.272L18.15 25.188z" fill="#C8C8C8"/></svg>