<svg width="111" height="110" fill="none" xmlns="http://www.w3.org/2000/svg"><path d="M106.73 29.21 87.45 48.493l-1.253-.734-4.705-2.78-10.114-5.959 27.714-27.744 5.102 11.978 1.559 3.666.977 2.292zM73.49 14.214l-3.212-5.047-12.223-6.111-12.222 6.11L27.5 0 0 12.222l8.785 50.942 48.125-.525 16.58-48.425z" fill="#00B8D4"/><path d="M69.514.382 42.778 27.5l20.56 6.774L93.733 1.827 69.514.382z" fill="#FFEA00"/><path d="m95.104 1.91-1.372-.083-32.62 31.784 10.256 5.402 27.727-27.726-3.99-9.377z" fill="#9CCC65"/><path d="M110.367 37.828 95.883 53.472l-8.433-4.98 19.28-19.28 3.637 8.616z" fill="#2979FF"/><path d="M79.444 24.444 58.02 59.403l21.618 31.066 30.73-18.297-30.923-47.728z" fill="#00B8D4"/><path d="m56.91 62.639-48.125.525 6.493 37.669L76.388 110l3.24-19.525.009-.006-21.618-31.066-1.11 3.236z" fill="#1E88E5"/><path d="M88.611 21.389H21.389V88.61H88.61V21.389z" fill="#090504"/><path d="m82.5 88.611-21.39 12.222-15.277-12.222H82.5z" fill="#00B8D4"/><path d="M51.944 76.389H27.5v6.11h24.444v-6.11zm-25.59-46.215h6.111l4.584 16.041 4.965-16.041h4.583l4.584 15.66L55 30.173h6.493l-7.639 27.882h-5.347l-4.965-14.514-4.202 14.132h-5.347l-7.639-27.5zM78.68 37.43l3.056-4.583s-3.645-3.55-11.076-3.437c-6.594.1-8.883 5.216-8.785 8.02.086 2.414 0 6.112 8.785 8.785 2.441.743 3.966 1.516 4.898 2.243 1.515 1.183.874 3.667-1.003 4.088-2.242.505-6.208.651-10.007-2.893l-3.819 4.583s5.73 4.583 12.222 4.201c6.493-.381 10.313-4.965 9.93-8.784-.381-3.82-2.673-6.111-7.638-8.021-4.965-1.91-7.49-1.271-7.41-4.825.07-3.144 5.5-3.196 10.847.623z" fill="#fff"/></svg>