<svg width="97" height="110" fill="none" xmlns="http://www.w3.org/2000/svg"><path d="M46.235 105 8.425 94.504 0 0h92.584l-8.435 94.49L46.235 105z" fill="#264DE4"/><path d="m76.928 88.472 7.208-80.745H46.292v89.239l30.636-8.494z" fill="#2965F1"/><path d="m19.316 42.777 1.039 11.59h25.937v-11.59H19.316zm-2.088-23.46 1.054 11.591h28.01v-11.59H17.228zM46.292 72.88l-.05.013-12.91-3.485-.824-9.244H20.872l1.624 18.199 23.743 6.59.053-.014v-12.06z" fill="#EBEBEB"/><path d="m73.194 42.777 2.092-23.46H46.252v11.591h16.332l-1.055 11.87H46.252v11.59h14.273L59.178 69.4l-12.927 3.489v12.058l23.76-6.585.175-1.959 2.724-30.514.283-3.112z" fill="#fff"/></svg>