<svg width="70" height="110" fill="none" xmlns="http://www.w3.org/2000/svg"><path d="M52.5 73.333C62.165 73.333 70 65.125 70 55c0-10.125-7.835-18.333-17.5-18.333S35 44.875 35 55c0 10.125 7.835 18.333 17.5 18.333z" fill="#19BCFE"/><path fill-rule="evenodd" clip-rule="evenodd" d="M17.5 110c9.665 0 17.5-8.208 17.5-18.333V73.333H17.5C7.835 73.333 0 81.542 0 91.667S7.835 110 17.5 110z" fill="#09CF83"/><path fill-rule="evenodd" clip-rule="evenodd" d="M17.5 73.333H35V36.667H17.5C7.835 36.667 0 44.875 0 55c0 10.125 7.835 18.333 17.5 18.333z" fill="#A259FF"/><path fill-rule="evenodd" clip-rule="evenodd" d="M17.5 36.667H35V0H17.5C7.835 0 0 8.208 0 18.333 0 28.46 7.835 36.667 17.5 36.667z" fill="#F24E1E"/><path fill-rule="evenodd" clip-rule="evenodd" d="M52.5 36.667H35V0h17.5C62.165 0 70 8.208 70 18.333c0 10.126-7.835 18.334-17.5 18.334z" fill="#FF7262"/></svg>