<svg width="113" height="110" fill="none" xmlns="http://www.w3.org/2000/svg"><path d="M19.979 0h72.863c11.047 0 19.979 8.932 19.979 19.979V90.02c0 11.047-8.932 19.979-19.98 19.979H19.98C8.932 110 0 101.068 0 90.021V19.98C0 8.932 8.932 0 19.979 0z" fill="#49021F"/><path d="M40.991 28.77v48.418c0 .517-.235.752-.658.752H31.12c-.423 0-.611-.235-.611-.752V28.769c0-.423.235-.61.658-.61h9.166a.531.531 0 0 1 .611.47c.047.046.047.093.047.14zM68.162 78.504c-3.478.047-6.957-.658-10.106-2.115-2.962-1.363-5.406-3.62-7.099-6.393-1.74-2.868-2.585-6.44-2.585-10.718a19.306 19.306 0 0 1 2.585-9.919 19.521 19.521 0 0 1 7.475-7.286c3.29-1.834 7.239-2.727 11.893-2.727.235 0 .564 0 .987.047.423.047.893.047 1.457.094V24.632c0-.329.141-.517.47-.517h9.543c.235-.047.423.141.47.33V69.29c0 .846.047 1.786.094 2.82.094.987.141 1.927.188 2.727 0 .329-.14.61-.47.752a35.894 35.894 0 0 1-7.662 2.256c-2.35.423-4.795.658-7.24.658zm4.607-9.401V48.419a12.047 12.047 0 0 0-1.269-.235 17.17 17.17 0 0 0-1.551-.094c-1.834 0-3.667.376-5.312 1.222a10.538 10.538 0 0 0-3.996 3.479c-1.034 1.504-1.551 3.525-1.551 5.97a13.1 13.1 0 0 0 .799 4.842 9.188 9.188 0 0 0 2.115 3.337 8.121 8.121 0 0 0 3.197 1.88c1.27.424 2.585.612 3.902.612.705 0 1.363-.047 1.974-.094a4.004 4.004 0 0 0 1.692-.235z" fill="#F36"/></svg>