<svg width="42" height="43" viewBox="0 0 42 43" fill="none" xmlns="http://www.w3.org/2000/svg">
<path d="M21 29.4487C25.1974 29.4487 28.6 26.0392 28.6 21.8334C28.6 17.6275 25.1974 14.218 21 14.218C16.8026 14.218 13.4 17.6275 13.4 21.8334C13.4 26.0392 16.8026 29.4487 21 29.4487Z" stroke="#C8C8C8" stroke-width="4" stroke-linecap="round" stroke-linejoin="round"/>
<path d="M28.6 14.2175V23.7367C28.6 25.2515 29.2005 26.7042 30.2695 27.7753C31.3385 28.8464 32.7883 29.4482 34.3 29.4482C35.8117 29.4482 37.2616 28.8464 38.3305 27.7753C39.3995 26.7042 40 25.2515 40 23.7367V21.8328C39.9997 17.5359 38.5488 13.3655 35.8832 9.9996C33.2176 6.63372 29.4941 4.27038 25.318 3.29384C21.142 2.31731 16.7591 2.78503 12.882 4.62095C9.00486 6.45687 5.86157 9.55301 3.96321 13.4059C2.06484 17.2589 1.52305 21.642 2.42594 25.8425C3.32882 30.0431 5.62327 33.8141 8.93621 36.5424C12.2492 39.2707 16.3857 40.7957 20.6733 40.8696C24.9609 40.9435 29.1474 39.5618 32.552 36.9493" stroke="#C8C8C8" stroke-width="4" stroke-linecap="round" stroke-linejoin="round"/>
</svg>
