<svg width="66" height="110" viewBox="0 0 66 110" fill="none" xmlns="http://www.w3.org/2000/svg">
<path d="M30.3 90.6C27.8 90.6 25.8 92.6 25.8 95.1C25.8 97.6 27.8 99.6 30.3 99.6C32.8 99.6 34.8 97.6 34.8 95.1C34.8 92.6 32.8 90.6 30.3 90.6Z" fill="#498C6C"/>
<path d="M64.4 20.6H62.3V32.6H64.4C65.1 32.6 65.7 32 65.7 31.3V21.9C65.7 21.2 65.1 20.6 64.4 20.6Z" fill="#498C6C"/>
<path d="M64.4 39.9H62.3V51.9H64.4C65.1 51.9 65.7 51.3 65.7 50.6V41.2C65.7 40.5 65.1 39.9 64.4 39.9Z" fill="#498C6C"/>
<path d="M55 7C56.1 7 57 7.9 57 9V101C57 102.1 56.1 103 55 103H9C7.9 103 7 102.1 7 101V9C7 7.9 7.9 7 9 7H55ZM55 0H9C4 0 0 4 0 9V101C0 106 4 110 9 110H55C60 110 64 106 64 101V9C64 4 60 0 55 0Z" fill="#67BF97"/>
</svg>
